<svg width="33" height="32" viewBox="0 0 33 32" fill="none" xmlns="http://www.w3.org/2000/svg">
<rect x="13.7944" y="13.1804" width="2.63924" height="1.5" rx="0.75" transform="rotate(30 13.7944 13.1804)" fill="#489CFF"/>
<rect x="12.5332" y="14.6147" width="3.2294" height="1.5" rx="0.75" transform="rotate(-30 12.5332 14.6147)" fill="#489CFF"/>
<rect x="14" y="14.5" width="3.42432" height="1.5" rx="0.75" transform="rotate(-30 14 14.5)" fill="#489CFF"/>
<rect x="15.75" y="13" width="3.9145" height="1.5" rx="0.75" transform="rotate(30 15.75 13)" fill="#489CFF"/>
<path d="M13.0204 13C13.0204 13 6.01293 18.6782 7.11825 24.9198C7.66711 28.025 10.1757 29.8174 15.9943 29.9912C23.2115 30.2069 24.9372 26.394 24.9965 24.1826C25.1668 17.8542 19.0943 13 19.0943 13H13.0204Z" fill="white" stroke="#0F1628" stroke-width="1.6" stroke-miterlimit="10"/>
<path d="M11 8.62479L13.7198 13H18.1992L21 8.5529C21 8.5529 15.64 7.26225 11 8.62479Z" stroke="#0F1628" stroke-width="1.6" stroke-miterlimit="10"/>
<path d="M20 13H25" stroke="#0F1628" stroke-width="2" stroke-linecap="round"/>
<path fill-rule="evenodd" clip-rule="evenodd" d="M15.7001 15.7H17.3002V17.0798C17.5737 17.1338 17.8278 17.2151 18.0624 17.3239C18.5311 17.5369 18.899 17.8338 19.1661 18.2145C19.4331 18.5923 19.5709 19.027 19.5794 19.5185H18.0581C18.0184 19.1463 17.8508 18.8565 17.5553 18.6491C17.2627 18.4418 16.882 18.3381 16.4133 18.3381C16.0837 18.3381 15.8011 18.3878 15.5653 18.4872C15.3295 18.5866 15.1491 18.7216 15.0241 18.892C14.8991 19.0625 14.8352 19.2571 14.8324 19.4759C14.8324 19.6577 14.8735 19.8153 14.9559 19.9489C15.0412 20.0824 15.1562 20.196 15.3011 20.2898C15.446 20.3807 15.6065 20.4574 15.7826 20.5199C15.9587 20.5824 16.1363 20.6349 16.3153 20.6776L17.1334 20.8821C17.463 20.9588 17.7797 21.0625 18.0837 21.1932C18.3905 21.3239 18.6647 21.4886 18.9061 21.6875C19.1504 21.8864 19.3436 22.1264 19.4857 22.4077C19.6277 22.6889 19.6987 23.0185 19.6987 23.3963C19.6987 23.9077 19.5681 24.358 19.3067 24.7472C19.0453 25.1335 18.6675 25.4361 18.1732 25.6548C17.9116 25.7698 17.6206 25.8541 17.3002 25.9079V27.3H15.7001V25.9392C15.3025 25.8911 14.9422 25.7991 14.6193 25.6634C14.1221 25.4531 13.7329 25.1463 13.4517 24.7429C13.1733 24.3395 13.0227 23.848 13 23.2685H14.5554C14.5781 23.5724 14.6718 23.8253 14.8366 24.027C15.0014 24.2287 15.2159 24.3793 15.4801 24.4787C15.7471 24.5781 16.0454 24.6278 16.3749 24.6278C16.7187 24.6278 17.0198 24.5767 17.2783 24.4744C17.5397 24.3693 17.7442 24.2244 17.8919 24.0398C18.0397 23.8523 18.115 23.6335 18.1178 23.3835C18.115 23.1562 18.0482 22.9688 17.9175 22.821C17.7868 22.6705 17.6036 22.5455 17.3678 22.446C17.1349 22.3438 16.8621 22.2528 16.5496 22.1733L15.5568 21.9176C14.838 21.733 14.2699 21.4531 13.8523 21.0781C13.4375 20.7003 13.2301 20.1989 13.2301 19.5739C13.2301 19.0597 13.3693 18.6094 13.6477 18.223C13.929 17.8366 14.3111 17.5369 14.794 17.3239C15.0745 17.1985 15.3765 17.1095 15.7001 17.0569V15.7Z" fill="#0F1628"/>
</svg>
