<svg width="21" height="20" viewBox="0 0 21 20" fill="none" xmlns="http://www.w3.org/2000/svg">
<path d="M15.2105 13.2832C14.9747 13.0547 14.6592 12.9269 14.3308 12.9269H13.9211C13.8976 12.9269 13.8748 12.9189 13.8564 12.9041L13.4737 12.5435C13.3854 12.4602 13.3813 12.3211 13.4647 12.2329C14.654 10.8858 15.31 9.17352 15.31 7.41096C15.31 3.3242 11.8742 0 7.65502 0C3.43579 0 0 3.3242 0 7.41096C0 11.4977 3.43579 14.8174 7.65502 14.8174C9.48146 14.8174 11.2513 14.1826 12.6388 13.0274C12.7325 12.9497 12.8699 12.9558 12.9563 13.0416L13.1825 13.266C13.2936 13.3763 13.3562 13.5264 13.3562 13.6831V13.8975C13.3562 14.1964 13.4776 14.4826 13.6927 14.6903L18.4747 19.3096C18.8733 19.6946 19.5054 19.6943 19.9037 19.309C20.321 18.9052 20.3213 18.2361 19.9043 17.832L15.2105 13.2832ZM7.65502 12.9269C4.51184 12.9269 1.95387 10.4521 1.95387 7.41096C1.95387 4.36986 4.51184 1.89498 7.65502 1.89498C10.7982 1.89498 13.3562 4.36986 13.3562 7.41096C13.3562 10.4521 10.7982 12.9269 7.65502 12.9269Z" fill="#0F1628"/>
</svg>
