<svg width="73" height="38" viewBox="0 0 73 38" fill="none" xmlns="http://www.w3.org/2000/svg">
<path d="M0 10.2348V13.7183H0.223203L0.638098 12.9835C0.638098 12.9835 2.0259 13.8143 2.82417 13.8787C3.62245 13.9431 5.05883 14.0864 6.20767 13.1281C7.35651 12.1698 7.325 11.4823 7.37226 11.0826C7.41953 10.683 7.4366 9.77203 6.89303 8.95701C6.34947 8.14199 5.42515 7.82256 4.33933 7.47157C3.25351 7.12059 1.68978 6.84848 1.62676 5.29863C1.56242 3.74878 3.17473 3.3807 3.57387 3.41357C3.97301 3.44643 5.50524 3.55685 6.74992 6.24116C6.74992 6.24116 6.81426 6.3529 6.86152 6.17675L6.73416 3.17301H6.57399L6.14333 3.78033C6.14333 3.78033 5.02601 3.14146 3.51085 3.17301C1.99438 3.20456 0.622343 4.08399 0.287538 5.41036C-0.0472662 6.73674 0.622342 8.01448 1.46789 8.47852C2.31343 8.94255 3.7183 9.46968 4.51527 9.78912C5.31223 10.1086 6.1906 10.4595 6.01598 11.8503C5.84004 13.2398 4.8028 13.5763 4.34064 13.6237C3.87848 13.671 2.42503 13.671 1.40487 12.3775C0.383384 11.0826 0 10.2361 0 10.2361V10.2348Z" fill="black"/>
<path d="M8.22324 3.57359C8.22324 3.57359 9.80273 3.96927 9.82767 5.15499C9.85262 6.34071 9.83949 12.3811 9.83949 12.3811C9.83949 12.3811 9.95503 13.4314 8.28757 13.4511V13.6272H13.3582V13.4432C13.3582 13.4432 11.8982 13.5431 11.8982 12.3087C11.8982 11.0744 11.8378 5.69395 11.8378 5.69395C11.8378 5.69395 12.3407 4.33997 14.1473 4.06391C15.9539 3.78786 16.3491 5.65715 16.3491 5.65715L16.4214 12.3193C16.4214 12.3193 16.3859 13.5181 14.9009 13.4577L14.9128 13.6259H19.9401V13.4577C19.9401 13.4577 18.4197 13.5181 18.4197 12.2233V5.53621C18.4197 5.53621 19.0184 4.24138 20.7173 4.09809C22.4163 3.95481 22.8233 5.28381 22.931 6.03968V12.5822C22.931 12.5822 22.9914 13.459 21.4106 13.4563V13.6246H26.5574V13.4563C26.5574 13.4563 25.0252 13.409 25.0252 12.5217C25.0252 11.6344 24.9779 6.24212 24.953 5.84775C24.928 5.45339 24.7494 3.475 22.2364 3.21209C19.7234 2.94787 18.3711 5.14184 18.3711 5.14184C18.3711 5.14184 17.7488 3.37246 15.6428 3.19106C13.5368 3.00965 11.8733 5.05903 11.8733 5.05903C11.8733 5.05903 11.8851 4.00476 11.8851 3.86016C11.8851 3.71556 11.9087 3.34486 11.2023 3.35669C10.496 3.36852 9.69244 3.55782 8.22192 3.57228L8.22324 3.57359Z" fill="black"/>
<path d="M25.4294 3.55716H30.2085V3.7412C30.2085 3.7412 29.3945 3.72542 29.1792 3.93312C28.9639 4.14082 29.0033 4.53256 29.2435 4.97162C29.4838 5.41067 31.9719 11.1066 31.9719 11.1066C31.9719 11.1066 34.4927 5.01894 34.5334 4.77969C34.5741 4.54044 34.5492 4.14082 34.238 4.01331C33.9268 3.8858 33.1168 3.74909 32.9618 3.55848H37.9524V0H39.9756V3.36787H45.5176V0H47.7077V3.36787H50.7721V3.93049L47.7195 3.94232C47.7195 3.94232 47.7077 11.2157 47.7431 11.3958C47.7786 11.5759 48.0425 12.6657 49.2386 12.7143C50.4347 12.7629 50.7944 11.8033 51.0216 10.8568H51.2133C51.2133 10.8568 51.166 11.6719 50.6986 12.3791C50.2312 13.0863 49.8255 13.553 49.1782 13.7094C48.5322 13.8658 47.2757 13.8895 46.7006 13.4215C46.1255 12.9535 45.7317 12.3791 45.6831 11.3721C45.6358 10.3652 45.6227 3.94232 45.6227 3.94232H40.0571V10.3652C40.0571 10.3652 40.0334 11.5154 40.3682 11.9466C40.703 12.3778 41.0982 13.0127 42.4388 12.546C42.4388 12.546 43.241 12.1504 43.4195 10.8568L43.5876 10.845C43.5876 10.845 43.5403 11.7323 42.9771 12.6538C42.4138 13.5753 41.0982 14.0196 39.7695 13.7081C38.4408 13.3965 38.106 12.1267 38.0338 11.0961C37.9616 10.0655 37.9498 3.93049 37.9498 3.93049L35.8556 3.95415C35.8556 3.95415 35.6048 3.84636 35.2451 4.4458C34.8853 5.04523 31.9417 12.103 31.5583 13.0258C31.1749 13.9487 30.6248 15.3631 30.2059 16.1531C29.7871 16.9445 29.2488 17.7832 28.6737 18.1657C28.0986 18.5483 27.2019 19.1122 26.1961 18.4418C25.1904 17.7714 25.3821 16.7999 25.5738 16.4765C25.7655 16.1531 26.0885 15.7811 26.6872 15.8298C27.2859 15.8771 27.8597 16.1768 27.9319 16.7171C28.0041 17.2574 27.9319 17.6399 27.7402 18.2985C27.7402 18.2985 28.6855 18.0343 29.3683 16.909C30.051 15.7824 30.5657 14.9438 30.8768 13.7817C30.8768 13.7817 27.3227 5.57367 27.0706 5.04654C26.8185 4.51941 26.6321 3.78852 25.4268 3.56111L25.4294 3.55716Z" fill="black"/>
<path d="M60.8803 11.0377C60.8803 11.0377 60.1463 12.1958 59.5004 12.5718C58.8544 12.9477 57.7843 13.3382 56.9073 13.0595C56.0302 12.7795 54.9917 12.4929 54.3864 10.2555C54.3864 10.2555 54.1789 9.32879 54.2104 7.58701H60.833C60.833 7.58701 60.8645 5.79792 60.2579 5.01445C59.6513 4.23098 59.1406 3.44882 57.0031 3.19249C54.8643 2.93746 52.95 4.72656 52.455 6.02008C51.96 7.3149 51.9206 7.84992 51.9679 8.97649C52.0152 10.1031 52.2147 11.4846 54.003 13.0503C55.7899 14.6159 58.408 13.6576 58.7113 13.5301C59.0146 13.4026 60.1476 12.8268 61.0733 11.3256L60.8816 11.0377H60.8803ZM56.0446 3.54478C57.6911 3.25427 57.976 4.18366 58.3423 4.90271C58.71 5.62177 58.6299 7.17162 58.6299 7.17162H54.242C54.242 7.17162 54.3995 3.8353 56.0446 3.54478V3.54478Z" fill="black"/>
<path d="M61.0715 3.65095C61.0715 3.65095 62.6668 4.05845 62.6668 4.94577C62.6668 5.83309 62.7022 12.0036 62.6786 12.2796C62.655 12.5557 62.8217 13.418 61.1582 13.514V13.6612H66.3851V13.51C66.3851 13.51 65.6196 13.5416 65.1561 13.0946C64.6927 12.6477 64.7728 12.3033 64.7728 12.1285C64.7728 11.9536 64.7649 6.22483 64.7649 6.22483C64.7649 6.22483 64.7334 5.57018 64.9487 5.33751C65.164 5.10483 65.3793 4.76174 66.2971 4.3792C67.2149 3.99536 68.1247 4.17151 68.5147 4.48305C68.9046 4.7946 69.1449 5.04962 69.288 5.79366C69.4311 6.53769 69.3681 7.99026 69.3681 7.99026C69.3681 7.99026 69.3878 12.2967 69.3826 12.4558C69.3773 12.6148 69.3287 12.9908 68.906 13.1985C68.4832 13.4062 68.5147 13.4299 67.7414 13.4864L67.7492 13.6625H72.9998V13.4864C72.9998 13.4864 72.3052 13.4469 71.8273 13.0946C71.8273 13.0946 71.4597 12.8554 71.4689 12.3756C71.478 11.8958 71.4767 6.4483 71.461 6.12886C71.4452 5.80943 71.3573 4.90634 70.903 4.29902C70.4487 3.6917 69.5309 3.10015 67.8792 3.2132C66.2275 3.32494 64.7754 5.05883 64.7754 5.05883C64.7754 5.05883 64.7833 3.94015 64.7754 3.78897C64.7675 3.6378 64.648 3.36569 64.0414 3.40512C63.4349 3.44456 63.4349 3.51686 61.0728 3.65226L61.0715 3.65095Z" fill="black"/>
<path d="M36.0208 37.998C38.0069 37.998 39.6169 36.3859 39.6169 34.3974C39.6169 32.4089 38.0069 30.7969 36.0208 30.7969C34.0346 30.7969 32.4246 32.4089 32.4246 34.3974C32.4246 36.3859 34.0346 37.998 36.0208 37.998Z" fill="black"/>
<path d="M23.6841 37.998C25.6702 37.998 27.2803 36.3859 27.2803 34.3974C27.2803 32.4089 25.6702 30.7969 23.6841 30.7969C21.698 30.7969 20.0879 32.4089 20.0879 34.3974C20.0879 36.3859 21.698 37.998 23.6841 37.998Z" fill="black"/>
<path d="M48.3188 37.998C50.305 37.998 51.915 36.3859 51.915 34.3974C51.915 32.4089 50.305 30.7969 48.3188 30.7969C46.3327 30.7969 44.7227 32.4089 44.7227 34.3974C44.7227 36.3859 46.3327 37.998 48.3188 37.998Z" fill="black"/>
</svg>
