<svg width="32" height="32" viewBox="0 0 32 32" fill="none" xmlns="http://www.w3.org/2000/svg">
<rect x="6.75" y="1" width="5" height="1.5" rx="0.75" transform="rotate(30 6.75 1)" fill="#489CFF"/>
<rect x="6" y="8.5" width="5" height="1.5" rx="0.75" transform="rotate(-30 6 8.5)" fill="#489CFF"/>
<rect x="21" y="3.5" width="5" height="1.5" rx="0.75" transform="rotate(-30 21 3.5)" fill="#489CFF"/>
<rect x="21.75" y="6" width="5" height="1.5" rx="0.75" transform="rotate(30 21.75 6)" fill="#489CFF"/>
<path fill-rule="evenodd" clip-rule="evenodd" d="M7.56592 22.0658C8.38194 21.2496 9.659 20.7999 11.0002 20.8C12.3414 20.8 13.6185 21.2497 14.4345 22.0658L14.6688 22.3001H15.0002H19.5004C20.163 22.3001 20.7002 22.8373 20.7002 23.4999C20.7002 24.1626 20.163 24.6997 19.5004 24.6997H13.5002C13.0584 24.6997 12.7002 25.0579 12.7002 25.4997C12.7002 25.9416 13.0584 26.2997 13.5002 26.2997H19.5004C20.0984 26.2997 20.6526 26.1123 21.1075 25.7929C21.2287 25.7766 21.3481 25.7321 21.4556 25.6577L26.6994 22.0274C27.0611 21.7769 27.5551 21.8492 27.83 22.1928C28.1234 22.5595 28.0578 23.0958 27.6847 23.3811L22.1277 27.6306C21.2208 28.3242 20.1108 28.6999 18.969 28.6999H7.0002C6.55837 28.6999 6.2002 29.0581 6.2002 29.4999C6.2002 29.9418 6.55837 30.2999 7.0002 30.2999H18.969C20.4621 30.2999 21.9136 29.8085 23.0997 28.9016L28.6567 24.6521C29.7426 23.8217 29.9333 22.2607 29.0793 21.1932C28.2793 20.1931 26.8416 19.9828 25.7886 20.7119L22.2776 23.1426C22.1021 21.765 20.9256 20.7001 19.5004 20.7001H15.3153C14.1463 19.6776 12.5454 19.2 11.0002 19.2C9.34139 19.1999 7.61845 19.7503 6.43447 20.9345C6.12207 21.2469 6.12211 21.7534 6.43455 22.0658C6.74698 22.3782 7.25352 22.3782 7.56592 22.0658Z" fill="black"/>
<path d="M6.8276 20H2V30.6207H6.8276V20Z" fill="#489CFF" stroke="#489CFF" stroke-width="1.6"/>
<path d="M18.0231 16.761L14.4084 16.761C13.9854 16.761 13.6256 16.1777 13.5576 15.3842L12.8478 7.07881C12.7627 6.08053 13.167 5.1748 13.6986 5.1748L18.7329 5.1748C19.2645 5.1748 19.6688 6.08053 19.5837 7.07881L18.8739 15.3842C18.8058 16.1777 18.4461 16.761 18.0231 16.761Z" fill="#0F1628"/>
<path d="M15.3064 0.347168L17.126 0.347168C17.4228 0.347168 17.6641 0.667194 17.6641 1.06065L17.6641 4.20925L14.7676 4.20925L14.7676 1.06066C14.7676 0.667195 15.0096 0.347168 15.3064 0.347168Z" fill="#17A0FB"/>
</svg>
